# xmcd CD database file
#
# Track frame offsets:
#	150
#	19811
#	40481
#	57056
#	75838
#	90333
#	109348
#	133816
#	156468
#	176242
#	194708
#	212160
#	228481
#	248010
#	267620
#
# Disc length: 3806 seconds
#
# Revision: 0
# Processed by: cddbd v1.5.1PL0 Copyright (c) Steve Scherf et al.
# Submitted via: CDex 1.51
#
DISCID=d60edc0f
DTITLE=Kalibre - Once Upon A Time In The West
DYEAR=1995
DGENRE=Country
TTITLE0=Past The Point Of Rescue
TTITLE1=When You Say Nothing At All
TTITLE2=Blackjack Blues
TTITLE3=The River
TTITLE4=Not
TTITLE5=Wolves
TTITLE6=The Wind Beneath My Wings
TTITLE7=Neon Moon
TTITLE8=The Dance
TTITLE9=When You Leave That Way
TTITLE10=Love Is All Around
TTITLE11=Heartbreak Overload
TTITLE12=Just Loving You
TTITLE13=Speed Of The Sound Of Loneliness
TTITLE14=Once Upon A Time In The West
EXTD=YEAR: 1995
EXTT0=
EXTT1=
EXTT2=
EXTT3=
EXTT4=
EXTT5=
EXTT6=
EXTT7=
EXTT8=
EXTT9=
EXTT10=
EXTT11=
EXTT12=
EXTT13=
EXTT14=
PLAYORDER=
